<?xml version="1.0" encoding="UTF-8" standalone="no"?>
<!-- Created with Inkscape (http://www.inkscape.org/) -->

<svg
   width="200mm"
   height="200mm"
   viewBox="0 0 200 200"
   version="1.1"
   id="svg1"
   xml:space="preserve"
   sodipodi:docname="flybox.svg"
   inkscape:version="1.4.2 (ebf0e940, 2025-05-08)"
   xmlns:inkscape="http://www.inkscape.org/namespaces/inkscape"
   xmlns:sodipodi="http://sodipodi.sourceforge.net/DTD/sodipodi-0.dtd"
   xmlns="http://www.w3.org/2000/svg"
   xmlns:svg="http://www.w3.org/2000/svg"><sodipodi:namedview
     id="namedview1"
     pagecolor="#ffffff"
     bordercolor="#000000"
     borderopacity="0.25"
     inkscape:showpageshadow="2"
     inkscape:pageopacity="0.0"
     inkscape:pagecheckerboard="0"
     inkscape:deskcolor="#d1d1d1"
     inkscape:document-units="mm"
     inkscape:zoom="0.20484482"
     inkscape:cx="-707.85289"
     inkscape:cy="388.09865"
     inkscape:window-width="1320"
     inkscape:window-height="898"
     inkscape:window-x="0"
     inkscape:window-y="25"
     inkscape:window-maximized="0"
     inkscape:current-layer="layer1" /><defs
     id="defs1" /><g
     inkscape:label="Layer 1"
     inkscape:groupmode="layer"
     id="layer1"><g
       id="g33211"
       transform="matrix(0.29776545,0,0,0.29776545,72.103086,41.156296)"><path
         style="fill:#fdc41d"
         d="m 108.34688,415.9552 c -0.29104,-0.11047 -1.77932,-0.2236 -3.30729,-0.25141 -4.51388,-0.0822 -10.012165,-1.22325 -14.816668,-3.07499 -2.465993,-0.95043 -9.069468,-4.20814 -16.989905,-8.38167 -2.806542,-1.47886 -9.924835,-5.15511 -15.818429,-8.16944 -5.893593,-3.01432 -15.299531,-7.82972 -20.902083,-10.70088 -5.602552,-2.87115 -13.341614,-6.83505 -17.197917,-8.80867 -3.856302,-1.97361 -9.7498954,-5.04049 -13.0968746,-6.81528 -3.3469791,-1.77479 -10.1335416,-5.28723 -15.08125,-7.80542 -4.9477084,-2.51818 -14.2941144,-7.34212 -20.7697914,-10.71986 -6.475677,-3.37774 -18.739115,-9.68488 -27.252084,-14.01586 -8.512968,-4.33098 -17.561718,-8.97257 -20.108333,-10.31465 -4.839462,-2.55042 -14.049743,-7.32828 -28.574995,-14.82336 -4.72943,-2.4404 -10.32537,-5.35612 -12.43542,-6.47937 -2.11005,-1.12325 -7.28927,-3.80304 -11.50938,-5.95508 -25.27694,-12.88998 -27.77591,-14.44231 -33.39831,-20.74661 -4.16536,-4.67055 -8.00504,-11.24817 -9.82034,-16.82286 -1.35412,-4.15847 -1.89261,-7.44601 -2.16131,-13.19502 -0.29881,-6.39324 -0.29684,-77.65163 0.004,-127.29873 0.20769,-34.330669 0.23708,-35.831858 0.75626,-38.629171 1.52142,-8.197276 5.18934,-14.393921 11.20174,-18.924405 3.63655,-2.740223 6.20884,-3.8438 13.26028,-5.688994 4.45422,-1.165562 4.72731,-1.279432 13.279,-5.536955 14.86188,-7.399101 26.675,-14.301167 44.979163,-26.280035 10.287441,-6.73245 30.803867,-20.8585606 37.201678,-25.61435419 0.961131,-0.7144538 4.175818,-3.07735881 7.14375,-5.25090001 9.391231,-6.8775938 18.648268,-13.7461518 27.987455,-20.7661978 3.402877,-2.557863 7.394878,-5.543628 8.871113,-6.635034 1.4762357,-1.091406 4.1094074,-3.122982 5.8514929,-4.514613 1.7420855,-1.391631 4.23899069,-3.34963 5.5486782,-4.351108 1.3096875,-1.001479 3.6909375,-2.847531 5.2916667,-4.102338 7.6888032,-6.02723 17.0559092,-12.7506 23.7471202,-17.044826 6.689166,-4.292913 18.616924,-10.659927 24.659088,-13.162973 6.87218,-2.846891 18.646587,-6.467941 25.147958,-7.733893 8.675232,-1.689248 26.119287,-1.952147 35.651837,-0.537308 2.97769,0.441954 8.56865,1.848489 12.76691,3.211811 16.01605,5.200968 32.74,14.49317 56.00702,31.11876 3.53906,2.528855 9.47074,6.761459 13.18153,9.405786 3.71078,2.644327 9.00906,6.451796 11.77395,8.461042 8.6843,6.310868 28.54392,20.027786 34.8696,24.0842192 1.27921,0.8203153 5.14875,3.341606 8.59896,5.6028682 10.74883,7.0447668 28.64726,17.7760356 40.80124,24.4629896 13.23414,7.281251 30.98291,16.337631 43.78854,22.34328 3.20146,1.501436 7.19005,3.383853 8.86354,4.183148 1.67349,0.799295 3.99521,1.862338 5.15937,2.362316 1.16417,0.499979 4.2598,2.022381 6.87917,3.383115 3.1784,1.651141 5.59815,2.714464 7.27484,3.196814 10.51326,3.024452 17.25457,9.295405 20.47101,19.042681 2.04596,6.200193 2.06098,6.961698 1.9578,99.212185 l -0.0861,76.99375 -0.72055,3.175 c -0.86701,3.82042 -1.5173,5.84059 -2.89573,8.99584 -3.66169,8.38167 -9.56735,15.51595 -16.80984,20.30697 -3.31172,2.19075 -5.70322,3.48023 -26.12474,14.08622 -9.31334,4.83692 -19.19552,9.98405 -21.96042,11.43808 -2.7649,1.45402 -7.28927,3.80588 -10.05417,5.22634 -2.76489,1.42046 -6.75349,3.50419 -8.86354,4.63049 -2.11005,1.12631 -8.42036,4.40228 -14.02291,7.27994 -5.60256,2.87766 -11.79381,6.09489 -13.75834,7.1494 -1.96453,1.05451 -7.08422,3.73221 -11.37708,5.95043 -4.29287,2.21823 -10.60318,5.49171 -14.02292,7.27441 -3.41974,1.7827 -9.61099,4.99977 -13.75833,7.14905 -4.14735,2.14927 -7.65969,3.99481 -7.80521,4.1012 -0.14552,0.10639 -5.74146,3.01972 -12.43542,6.47407 -6.69395,3.45435 -14.0163,7.26782 -16.27187,8.47436 -2.25557,1.20655 -8.56589,4.50987 -14.02292,7.3407 -12.5795,6.52562 -19.35242,10.05052 -38.89375,20.24183 -8.65849,4.51564 -16.45708,8.50765 -17.33021,8.87114 -4.40804,1.83513 -9.03746,3.03109 -14.50994,3.74847 -3.47953,0.45612 -3.2882,0.44784 -4.01089,0.17356 z"
         id="path33213" /><path
         style="fill:#faae06"
         d="m 108.34688,415.9552 c -0.29104,-0.11047 -1.77932,-0.2236 -3.30729,-0.25141 -4.51388,-0.0822 -10.012165,-1.22325 -14.816668,-3.07499 -2.465993,-0.95043 -9.069468,-4.20814 -16.989905,-8.38167 -2.806542,-1.47886 -9.924835,-5.15511 -15.818429,-8.16944 -5.893593,-3.01432 -15.299531,-7.82972 -20.902083,-10.70088 -5.602552,-2.87115 -13.341614,-6.83505 -17.197917,-8.80867 -3.856302,-1.97361 -9.7498954,-5.04049 -13.0968746,-6.81528 -3.3469791,-1.77479 -10.1335416,-5.28723 -15.08125,-7.80542 -4.9477084,-2.51818 -14.2941144,-7.34212 -20.7697914,-10.71986 -6.475677,-3.37774 -18.739115,-9.68488 -27.252084,-14.01586 -8.512968,-4.33098 -17.561718,-8.97257 -20.108333,-10.31465 -4.839462,-2.55042 -14.049743,-7.32828 -28.574995,-14.82336 -4.72943,-2.4404 -10.32537,-5.35612 -12.43542,-6.47937 -2.11005,-1.12325 -7.28927,-3.80304 -11.50938,-5.95508 -25.27694,-12.88998 -27.77591,-14.44231 -33.39831,-20.74661 -4.16536,-4.67055 -8.00504,-11.24817 -9.82034,-16.82286 -1.35412,-4.15847 -1.89261,-7.44601 -2.16131,-13.19502 -0.29881,-6.39324 -0.29684,-77.65163 0.004,-127.29873 0.20769,-34.330669 0.23708,-35.831858 0.75626,-38.629171 0.92571,-4.987653 2.30533,-8.459695 4.93673,-12.424061 2.42323,-3.650754 6.73169,-7.344831 10.85222,-9.304721 2.47637,-1.177855 7.48819,-2.74451 10.45616,-3.268505 0.93848,-0.165689 2.20413,-0.410727 2.81256,-0.544527 2.20152,-0.484137 21.70996,-10.495155 29.45314,-15.114275 3.29188,-1.963742 6.91782,-4.07061 8.59896,-4.996466 1.29793,-0.714811 1.49556,-0.76933 1.08347,-0.298887 -0.27722,0.31647 -0.61557,0.5754 -0.7519,0.5754 -0.13634,0 -0.56437,0.248641 -0.95118,0.552535 -0.38682,0.303894 -1.29862,0.951514 -2.02623,1.439156 -0.7276,0.487642 -2.15635,1.447465 -3.175,2.13294 -2.07293,1.394936 -2.73387,1.781593 -5.95312,3.482655 -1.23693,0.653595 -2.43693,1.352461 -2.66667,1.553035 -0.22974,0.200573 -0.51096,0.364679 -0.62494,0.364679 -0.11399,0 -1.83102,0.987083 -3.81563,2.193518 -1.98461,1.206434 -4.97761,2.766507 -6.65109,3.466828 -1.67349,0.700321 -3.69756,1.656494 -4.49792,2.124827 -0.80037,0.468334 -2.02597,1.140683 -2.72357,1.494109 -1.61042,0.815899 -2.51419,1.728381 -2.1111,2.131469 0.16019,0.160184 1.04563,0.461954 1.96764,0.6706 1.04732,0.237001 4.15857,1.606385 8.29099,3.649193 3.63802,1.79841 7.92427,3.891125 9.525,4.650479 4.3686,2.072377 7.84775,3.729411 11.37708,5.418636 5.90776,2.827599 8.62525,4.098258 8.76473,4.098258 0.19171,0 5.425506,2.613697 5.771862,2.882401 0.154041,0.119505 1.681554,0.834168 3.394472,1.58814 1.712919,0.753972 4.987138,2.269394 7.276042,3.367605 2.288904,1.098212 4.637894,2.215112 5.219977,2.482 0.582084,0.266888 2.822934,1.333276 4.979668,2.369751 3.692474,1.774514 5.701343,2.723393 10.101582,4.771426 1.018646,0.474115 3.876146,1.843707 6.35,3.043538 4.670028,2.264984 7.84472,3.783865 11.90625,5.696345 1.309688,0.6167 3.750469,1.77261 5.423959,2.56868 1.673489,0.79607 3.935677,1.86484 5.027083,2.37505 1.091406,0.5102 4.960938,2.35052 8.598958,4.08959 3.638021,1.73908 7.448021,3.55935 8.466667,4.04506 1.018646,0.4857 3.340365,1.60008 5.159375,2.47638 9.5968589,4.62326 12.7596574,6.13362 12.8442708,6.13362 0.051414,0 1.31990721,0.5805 2.818875,1.29 1.4989678,0.7095 4.0350835,1.90869 5.6358126,2.66486 1.6007292,0.75617 4.2201046,2.00821 5.8208336,2.78231 1.600729,0.7741 3.922448,1.88504 5.159375,2.46874 2.439331,1.15112 7.136122,3.39521 12.567708,6.00476 1.891771,0.90888 4.68974,2.24993 6.217708,2.98012 1.527969,0.73018 4.683125,2.2484 7.011459,3.37381 2.328333,1.12541 5.423958,2.61162 6.879166,3.30267 1.455209,0.69106 4.134115,1.9703 5.953125,2.84276 5.049916,2.42211 8.498584,4.03997 8.6117,4.03997 0.05613,0 3.052793,1.44074 6.659243,3.20164 9.202842,4.49344 12.330164,6.01047 16.875932,8.18635 8.77181,4.19872 10.958492,5.24935 13.493747,6.48329 2.26047,1.1002 2.92643,1.30336 4.57231,1.39487 3.13325,0.17419 2.39527,0.46645 17.91728,-7.09557 3.05593,-1.4888 7.04453,-3.42255 8.86354,-4.29724 1.81901,-0.87469 4.91463,-2.36327 6.87917,-3.30796 1.96453,-0.94469 4.70296,-2.2518 6.08541,-2.90468 1.38245,-0.65288 4.44909,-2.12706 6.81475,-3.27596 2.36567,-1.1489 4.34828,-2.08891 4.40582,-2.08891 0.0575,0 2.88449,-1.35085 6.28212,-3.0019 3.39764,-1.65104 7.01096,-3.39172 8.0296,-3.86818 1.01865,-0.47646 7.50756,-3.60478 14.4198,-6.95182 6.91223,-3.34705 14.29411,-6.91747 16.40416,-7.93429 5.20504,-2.50826 8.95068,-4.32583 17.06563,-8.28111 7.10683,-3.46392 8.04331,-3.91253 15.61041,-7.47805 2.47386,-1.16565 7.35542,-3.51105 10.84792,-5.212 5.73157,-2.79145 8.79869,-4.27999 16.47031,-7.99337 1.34607,-0.65155 2.4474,-1.29312 2.4474,-1.42571 0,-0.13259 -0.35719,-0.25595 -0.79375,-0.27414 -1.8043,-0.0752 -2.47145,-0.18969 -7.40833,-1.271541 -6.33938,-1.389188 -9.31689,-2.361951 -15.61042,-5.099977 C 231.55585,89.782733 226.59299,86.948067 215.50313,79.251408 208.23726,74.208698 191.52901,59.694388 183.09167,51.09585 165.92747,33.603726 156.8578,22.439576 147.3853,7.1437439 c -0.76601,-1.2369271 -1.78573,-2.8442708 -2.26603,-3.571875 -4.50276,-6.8211388 -9.63785,-15.8188039 -15.32663,-26.8552079 -8.58523,-16.655623 -12.60173,-23.740673 -18.22401,-32.146875 -5.41718,-8.099549 -14.077657,-17.969971 -19.996662,-22.790371 -3.616092,-2.944922 -4.76326,-3.537416 -6.836267,-3.530824 -1.702837,0.0054 -6.19403,0.598912 -8.011406,1.058682 -0.652162,0.164987 -1.870137,0.408217 -2.706613,0.54051 -0.836475,0.132293 -1.908037,0.402133 -2.38125,0.599645 -0.993982,0.414872 -3.301778,0.844289 -2.447885,0.455483 1.295746,-0.589996 9.086893,-2.624254 11.642223,-3.039769 1.309381,-0.212915 3.63085,-0.601334 5.158818,-0.863154 2.381206,-0.408023 4.365804,-0.474605 13.890625,-0.466024 12.787657,0.01152 14.530137,0.177122 22.072907,2.097771 10.38522,2.644434 19.66637,6.494368 31.73182,13.162747 10.20343,5.639271 19.40922,11.736059 39.4609,26.13407 3.56526,2.560018 7.67292,5.478969 9.12812,6.486558 1.45521,1.007589 4.61037,3.27496 7.01146,5.038602 5.45453,4.006442 18.58155,13.218069 23.15104,16.245793 1.89177,1.253477 5.46365,3.646384 7.9375,5.3175697 10.0053,6.7589749 21.87126,14.3145592 30.2948,19.2900483 3.27421,1.933966 6.54843,3.902899 7.27604,4.375405 8.61493,5.594533 41.9791,23.157914 59.26666,31.198826 2.7649,1.286028 6.81302,3.168952 8.99584,4.184275 8.2554,3.839956 11.42896,5.37829 13.07234,6.33661 0.93239,0.543715 2.06348,1.065389 2.51354,1.159275 1.47073,0.30681 6.07044,1.701892 7.88561,2.391689 3.58917,1.363948 8.03491,4.406757 10.37172,7.098743 3.64747,4.20186 6.06016,9.153052 7.16852,14.710861 0.8352,4.188024 0.95026,16.873082 0.86275,95.111143 l -0.0861,76.99375 -0.72055,3.175 c -0.86701,3.82042 -1.5173,5.84059 -2.89573,8.99584 -3.66169,8.38167 -9.56735,15.51595 -16.80984,20.30697 -3.31172,2.19075 -5.70322,3.48023 -26.12474,14.08622 -9.31334,4.83692 -19.19552,9.98405 -21.96042,11.43808 -2.7649,1.45402 -7.28927,3.80588 -10.05417,5.22634 -2.76489,1.42046 -6.75349,3.50419 -8.86354,4.63049 -2.11005,1.12631 -8.42036,4.40228 -14.02291,7.27994 -5.60256,2.87766 -11.79381,6.09489 -13.75834,7.1494 -1.96453,1.05451 -7.08422,3.73221 -11.37708,5.95043 -4.29287,2.21823 -10.60318,5.49171 -14.02292,7.27441 -3.41974,1.7827 -9.61099,4.99977 -13.75833,7.14905 -4.14735,2.14927 -7.65969,3.99481 -7.80521,4.1012 -0.14552,0.10639 -5.74146,3.01972 -12.43542,6.47407 -6.69395,3.45435 -14.0163,7.26782 -16.27187,8.47436 -2.25557,1.20655 -8.56589,4.50987 -14.02292,7.3407 -12.5795,6.52562 -19.35242,10.05052 -38.89375,20.24183 -8.65849,4.51564 -16.45708,8.50765 -17.33021,8.87114 -4.40804,1.83513 -9.03746,3.03109 -14.50994,3.74847 -3.47953,0.45612 -3.2882,0.44784 -4.01089,0.17356 z M 87.973963,289.79008 v -75.46721 l -0.79375,-0.77601 c -1.384454,-1.3535 -2.598747,-1.96512 -25.929166,-13.05999 -6.111875,-2.90652 -12.481719,-5.93844 -14.155209,-6.73758 -1.673489,-0.79915 -5.007239,-2.37893 -7.408333,-3.51063 C 37.286411,189.10697 29.249693,185.2349 21.82813,181.63406 14.406568,178.03322 7.6200051,174.759 6.7468801,174.358 5.8737551,173.95701 2.7781301,172.47141 -0.13228658,171.05666 -6.09822,168.15664 -28.245398,157.49734 -42.201037,150.80924 c -5.093229,-2.44088 -11.403541,-5.4747 -14.022916,-6.74182 -2.619375,-1.26712 -8.036719,-3.85243 -12.038542,-5.74514 -4.001823,-1.89271 -11.97901,-5.70676 -17.727083,-8.47566 -9.924384,-4.78067 -20.619772,-9.87177 -30.559372,-14.54653 -2.47386,-1.16349 -5.50995,-2.59331 -6.74688,-3.17737 -6.53234,-3.08447 -10.69609,-4.96648 -10.98784,-4.96648 -0.56866,0 -0.70035,17.49893 -0.60131,79.90417 0.0879,55.40145 0.12309,59.23301 0.55717,60.69684 0.50012,1.68651 1.43687,3.13586 2.69761,4.1738 1.06224,0.87452 2.22097,1.50431 12.56771,6.83079 4.87494,2.50961 10.45238,5.38862 12.39429,6.3978 3.57452,1.85761 17.09738,8.81495 27.028622,13.90588 2.983177,1.52923 6.376458,3.29019 7.540625,3.91324 1.164166,0.62305 6.998229,3.63057 12.964583,6.68338 5.966354,3.05282 13.943542,7.1541 17.727083,9.11396 3.783542,1.95986 10.510573,5.44029 14.948959,7.73429 4.438385,2.294 10.39151,5.39306 13.229166,6.88681 2.837657,1.49375 10.8743754,5.66231 17.8593754,9.26347 6.9849996,3.60116 15.2598436,7.88407 18.3885416,9.51757 3.128698,1.6335 9.439011,4.90809 14.022917,7.27686 4.583906,2.36878 9.227344,4.78416 10.31875,5.36752 1.091406,0.58336 5.258594,2.73005 9.260416,4.77041 4.001823,2.04037 10.074011,5.18714 13.49375,6.99283 3.41974,1.80568 8.360834,4.36303 10.980209,5.68299 2.619375,1.31996 5.000625,2.56564 5.291666,2.76818 0.291042,0.20254 0.767292,0.33495 1.058334,0.29425 0.527757,-0.0738 0.529166,-0.27505 0.529166,-75.5412 z M 348.41134,126.93673 c -0.023,-3.51119 -0.12917,-6.74905 -0.23595,-7.19525 -0.19158,-0.80061 -0.19497,-0.79736 -0.25747,0.24706 -0.0348,0.58208 -0.0553,1.89177 -0.0455,2.91041 0.01,1.01865 0.0261,3.85341 0.0363,6.29947 0.0119,2.87544 0.1114,4.38993 0.28145,4.28483 0.16446,-0.10164 0.24736,-2.55485 0.22123,-6.54652 z M -104.6427,35.827826 c 0.29104,-0.22179 2.13651,-1.429857 4.10104,-2.684593 1.96453,-1.254736 6.156964,-3.95675 9.316519,-6.004476 3.159555,-2.047726 6.25518,-4.052397 6.879167,-4.454824 0.623986,-0.402427 3.099052,-2.092919 5.500146,-3.756648 2.401094,-1.663729 5.913437,-4.088365 7.805208,-5.38808 5.134492,-3.527582 13.686048,-9.549099 16.536458,-11.644029 3.677797,-2.70302351 5.477125,-3.9049577 5.030611,-3.3604019 -0.216341,0.2638438 -1.23731,1.08840745 -2.268821,1.83236372 -1.03151,0.74395628 -3.268121,2.40326798 -4.970247,3.68735938 -1.702126,1.2840913 -4.788813,3.4502595 -6.859304,4.8137071 -2.070492,1.3634477 -4.24078,2.8527277 -4.822864,3.3095127 -0.582083,0.456784 -2.010833,1.529478 -3.175,2.383765 -1.164166,0.854287 -2.419273,1.785469 -2.789125,2.069293 -0.369853,0.283824 -1.262821,0.845358 -1.984375,1.247854 -1.541325,0.859778 -3.496362,2.136513 -8.153596,5.324697 -1.871153,1.280928 -3.996918,2.708686 -4.723921,3.172796 -0.727004,0.46411 -1.517779,1.001209 -1.757279,1.193552 -0.239499,0.192343 -0.852172,0.576526 -1.361495,0.853739 -0.509323,0.277213 -1.302407,0.811677 -1.762408,1.187698 -1.705344,1.394007 -4.638601,3.300474 -8.025404,5.216103 -2.41168,1.364087 -3.62637,1.847297 -2.51531,1.000612 z m 59.663538,-40.8525031 c 0.509323,-0.4587848 1.878542,-1.5057944 3.042709,-2.3266881 1.164166,-0.8208937 4.855104,-3.5271908 8.202083,-6.0139928 3.346979,-2.486802 6.740261,-4.972847 7.540625,-5.524544 l 1.455208,-1.003086 -1.058333,0.963287 c -1.663977,1.51454 -6.753833,5.386986 -9.926984,7.552612 -0.746277,0.509322 -2.327213,1.6895138 -3.513189,2.6226469 -2.605806,2.0502632 -4.200371,3.1786713 -5.609827,3.9698432 l -1.058333,0.5940759 z m 28.839584,-21.2402219 c 0.677338,-0.689121 4.86905,-3.940179 7.5838634,-5.881982 1.4241574,-1.018646 3.1944289,-2.387865 3.9339367,-3.042708 1.6440069,-1.45579 6.8963573,-5.540707 15.2051159,-11.825495 2.255573,-1.706127 4.636823,-3.544849 5.291667,-4.08605 1.161597,-0.960011 5.187984,-3.738488 13.49375,-9.311593 2.255573,-1.513472 5.707376,-3.678554 7.670674,-4.811294 4.44715,-2.565817 15.90953,-8.349492 18.390784,-9.279601 6.41171,-2.403458 12.136006,-4.326711 12.914053,-4.338872 1.074804,-0.0168 -4.211112,2.082915 -5.638011,2.239576 -0.218281,0.02397 -0.898147,0.303019 -1.510814,0.620118 -0.612666,0.317099 -1.246346,0.576544 -1.408178,0.576544 -0.161831,0 -1.62509,0.64203 -3.251686,1.426735 -1.626596,0.784704 -3.671822,1.744896 -4.544947,2.13376 -3.898026,1.736068 -5.940355,2.744437 -6.482292,3.200534 -0.418733,0.352409 -2.651229,1.560286 -7.672916,4.151379 -3.590434,1.852595 -5.090298,2.660872 -6.35,3.422019 -1.051166,0.635142 -5.086542,3.231937 -6.085417,3.91601 -0.363802,0.249147 -1.040742,0.649127 -1.504311,0.888844 -0.463569,0.239716 -1.773257,1.150816 -2.910417,2.024666 -1.13716,0.873849 -2.901001,2.151139 -3.919647,2.838421 -1.018646,0.687283 -2.298665,1.659314 -2.844487,2.160069 -0.545823,0.500756 -1.377716,1.144787 -1.848652,1.43118 -0.470935,0.286394 -1.72624,1.249444 -2.7895662,2.140112 -1.0633257,0.890668 -2.2554951,1.858584 -2.6492654,2.150926 -0.3937703,0.292341 -1.6240709,1.244841 -2.7340014,2.116667 -1.1099305,0.871825 -2.9430673,2.23998 -4.07363719,3.040345 -1.13056991,0.800364 -2.48463251,1.823622 -3.00902791,2.273906 -0.5243954,0.450283 -2.7989149,2.200728 -5.0544878,3.889877 -2.2555731,1.689148 -4.9175441,3.701984 -5.9154911,4.472969 -1.989001,1.536644 -2.985998,2.174512 -2.286592,1.462938 z"
         id="path33212" /><path
         style="fill:#415258"
         d="m 108.34688,415.9552 c -0.29104,-0.11047 -1.77932,-0.2236 -3.30729,-0.25141 -4.51388,-0.0822 -10.012165,-1.22325 -14.816668,-3.07499 -2.465993,-0.95043 -9.069468,-4.20814 -16.989905,-8.38167 -2.806542,-1.47886 -9.924835,-5.15511 -15.818429,-8.16944 -5.893593,-3.01432 -15.299531,-7.82972 -20.902083,-10.70088 -5.602552,-2.87115 -13.341614,-6.83505 -17.197917,-8.80867 -3.856302,-1.97361 -9.7498954,-5.04049 -13.0968746,-6.81528 -3.3469791,-1.77479 -10.1335416,-5.28723 -15.08125,-7.80542 -4.9477084,-2.51818 -14.2941144,-7.34212 -20.7697914,-10.71986 -6.475677,-3.37774 -18.739115,-9.68488 -27.252084,-14.01586 -8.512968,-4.33098 -17.561718,-8.97257 -20.108333,-10.31465 -4.839462,-2.55042 -14.049743,-7.32828 -28.574995,-14.82336 -4.72943,-2.4404 -10.32537,-5.35612 -12.43542,-6.47937 -2.11005,-1.12325 -7.28927,-3.80304 -11.50938,-5.95508 -25.27694,-12.88998 -27.77591,-14.44231 -33.39831,-20.74661 -4.16536,-4.67055 -8.00504,-11.24817 -9.82034,-16.82286 -1.35412,-4.15847 -1.89261,-7.44601 -2.16131,-13.19502 -0.29881,-6.39324 -0.29684,-77.65163 0.004,-127.29873 0.20769,-34.330669 0.23708,-35.831858 0.75626,-38.629171 0.92571,-4.987653 2.30533,-8.459695 4.93673,-12.424061 2.96187,-4.46225 7.95994,-8.357882 13.3037,-10.369269 2.19539,-0.82634 8.44847,-2.472468 9.39614,-2.473539 0.84948,-9.59e-4 6.41202,1.592638 8.78153,2.515799 0.87313,0.340169 4.86172,2.218788 8.86354,4.17471 4.00182,1.955922 11.74089,5.670721 17.19792,8.25511 5.45703,2.584388 12.481717,5.920276 15.610415,7.413084 6.707257,3.200259 12.497992,5.955788 26.855208,12.779083 5.820834,2.766363 12.30974,5.858526 14.419792,6.871475 2.110052,1.012949 5.384271,2.559909 7.276042,3.437679 1.891771,0.87778 5.463646,2.573 7.9375,3.76716 4.771399,2.30321 13.672078,6.54996 17.197916,8.20559 1.164167,0.54665 3.783542,1.79264 5.820834,2.76886 2.037291,0.97622 7.3355727,3.50449 11.7739581,5.61839 4.4383854,2.11389 9.4390104,4.49858 11.1125,5.2993 1.6734896,0.80072 6.4955209,3.0953 10.7156249,5.09906 10.585955,5.02636 18.60584,8.86185 30.691667,14.67819 5.675312,2.73126 11.152187,5.35092 12.170833,5.82148 1.877529,0.8673 10.944442,5.22061 20.108333,9.65463 12.683992,6.13726 23.289387,11.1693 24.549617,11.64829 1.5051,0.57206 3.37827,0.66087 5.1794,0.24558 0.6347,-0.14634 6.23064,-2.71866 12.43541,-5.71626 6.20478,-2.99759 13.48406,-6.49336 16.1762,-7.76837 2.69213,-1.27501 7.27604,-3.47535 10.18646,-4.88965 2.91041,-1.4143 7.85151,-3.79496 10.98021,-5.29036 14.988,-7.16368 19.26303,-9.21833 30.82395,-14.8145 6.83948,-3.31072 16.06683,-7.77733 20.50521,-9.92581 4.43839,-2.14849 10.33198,-5.00585 13.09688,-6.3497 2.76489,-1.34386 5.97958,-2.8912 7.14375,-3.43854 1.16416,-0.54734 3.54541,-1.67777 5.29166,-2.51206 1.74625,-0.83429 5.40995,-2.57563 8.14155,-3.86965 2.73161,-1.29401 6.84359,-3.29265 9.13774,-4.44141 2.29415,-1.14876 5.95279,-2.92053 8.13032,-3.93725 2.17753,-1.01673 6.34039,-3.007481 9.25081,-4.423901 5.86092,-2.852349 6.76087,-3.283496 22.09271,-10.584164 5.89359,-2.806392 12.62062,-6.024397 14.94896,-7.151121 3.99107,-1.931357 12.31605,-5.875652 23.41562,-11.094101 2.69214,-1.265704 8.16901,-3.894141 12.17084,-5.840972 7.42242,-3.610904 10.78336,-4.914516 13.95711,-5.413552 0.98208,-0.154421 2.44046,-0.405961 3.24085,-0.558978 1.31752,-0.251881 1.71818,-0.200437 4.23333,0.543544 5.35982,1.585436 8.51816,3.121159 12.09656,5.881875 4.66719,3.600708 8.61166,10.475427 9.99742,17.424267 0.8352,4.188024 0.95026,16.873082 0.86275,95.111143 l -0.0861,76.99375 -0.72055,3.175 c -0.86701,3.82042 -1.5173,5.84059 -2.89573,8.99584 -3.66169,8.38167 -9.56735,15.51595 -16.80984,20.30697 -3.31172,2.19075 -5.70322,3.48023 -26.12474,14.08622 -9.31334,4.83692 -19.19552,9.98405 -21.96042,11.43808 -2.7649,1.45402 -7.28927,3.80588 -10.05417,5.22634 -2.76489,1.42046 -6.75349,3.50419 -8.86354,4.63049 -2.11005,1.12631 -8.42036,4.40228 -14.02291,7.27994 -5.60256,2.87766 -11.79381,6.09489 -13.75834,7.1494 -1.96453,1.05451 -7.08422,3.73221 -11.37708,5.95043 -4.29287,2.21823 -10.60318,5.49171 -14.02292,7.27441 -3.41974,1.7827 -9.61099,4.99977 -13.75833,7.14905 -4.14735,2.14927 -7.65969,3.99481 -7.80521,4.1012 -0.14552,0.10639 -5.74146,3.01972 -12.43542,6.47407 -6.69395,3.45435 -14.0163,7.26782 -16.27187,8.47436 -2.25557,1.20655 -8.56589,4.50987 -14.02292,7.3407 -12.5795,6.52562 -19.35242,10.05052 -38.89375,20.24183 -8.65849,4.51564 -16.45708,8.50765 -17.33021,8.87114 -4.40804,1.83513 -9.03746,3.03109 -14.50994,3.74847 -3.47953,0.45612 -3.2882,0.44784 -4.01089,0.17356 z m 23.39262,-51.99069 c 3.00822,-1.63532 21.30697,-11.26868 33.22821,-17.49296 1.74625,-0.91175 8.47328,-4.45045 14.94896,-7.86379 6.47568,-3.41334 14.57193,-7.67164 17.99167,-9.46289 3.41974,-1.79124 7.17021,-3.75871 8.33437,-4.37214 1.16417,-0.61343 3.36683,-1.76986 4.8948,-2.56983 1.52796,-0.79997 6.05234,-3.18073 10.05416,-5.29056 4.00182,-2.10983 10.01448,-5.26796 13.36146,-7.01807 3.34698,-1.75011 7.09745,-3.71445 8.33438,-4.36519 5.12386,-2.69564 18.80011,-9.837 24.20937,-12.64146 2.03729,-1.05625 5.6687,-2.9591 8.06979,-4.22855 8.01247,-4.23618 14.8684,-7.8341 24.20938,-12.70486 5.09323,-2.6558 10.21291,-5.33577 11.37708,-5.95548 1.16417,-0.6197 4.73604,-2.491 7.9375,-4.15843 3.20146,-1.66743 7.8449,-4.10181 10.31875,-5.40973 2.47385,-1.30792 6.52198,-3.4241 8.99583,-4.70261 2.47386,-1.27852 5.17232,-2.72854 5.99658,-3.22227 2.47014,-1.4796 3.93058,-3.51373 4.48684,-6.24935 0.27653,-1.35995 0.34956,-139.33552 0.0739,-139.61118 -0.23148,-0.23149 -2.15709,0.60188 -8.96982,3.88198 -3.78354,1.82165 -10.45104,5.00942 -14.81666,7.08393 -8.85361,4.20717 -12.96886,6.18097 -19.57917,9.3908 -10.72842,5.2095 -14.31636,6.95261 -19.05,9.25499 -6.05328,2.94424 -17.732,8.58333 -26.59062,12.83931 -3.56527,1.71287 -10.64948,5.13721 -15.74271,7.60964 -5.09323,2.47242 -13.48714,6.54538 -18.65313,9.05102 -5.16599,2.50564 -15.04818,7.31986 -21.96041,10.69828 -6.91224,3.37841 -12.9249,6.3104 -13.36146,6.51552 -0.43657,0.20512 -8.1161,3.90279 -17.06563,8.21705 -8.94953,4.31426 -19.56392,9.43028 -23.58754,11.36894 -9.91258,4.77609 -18.29417,8.97344 -20.13485,10.0832 l -1.52136,0.91724 v 76.00445 c 0,41.80245 0.0794,76.08383 0.17639,76.18085 0.2722,0.27219 0.22268,0.29401 4.03394,-1.77785 z M 87.973963,289.79008 v -75.46721 l -0.79375,-0.77601 c -1.384454,-1.3535 -2.598747,-1.96512 -25.929166,-13.05999 -6.111875,-2.90652 -12.481719,-5.93844 -14.155209,-6.73758 -1.673489,-0.79915 -5.007239,-2.37893 -7.408333,-3.51063 C 37.286411,189.10697 29.249693,185.2349 21.82813,181.63406 14.406568,178.03322 7.6200051,174.759 6.7468801,174.358 5.8737551,173.95701 2.7781301,172.47141 -0.13228658,171.05666 -6.09822,168.15664 -28.245398,157.49734 -42.201037,150.80924 c -5.093229,-2.44088 -11.403541,-5.4747 -14.022916,-6.74182 -2.619375,-1.26712 -8.036719,-3.85243 -12.038542,-5.74514 -4.001823,-1.89271 -11.97901,-5.70676 -17.727083,-8.47566 -9.924384,-4.78067 -20.619772,-9.87177 -30.559372,-14.54653 -2.47386,-1.16349 -5.50995,-2.59331 -6.74688,-3.17737 -6.53234,-3.08447 -10.69609,-4.96648 -10.98784,-4.96648 -0.56866,0 -0.70035,17.49893 -0.60131,79.90417 0.0879,55.40145 0.12309,59.23301 0.55717,60.69684 0.50012,1.68651 1.43687,3.13586 2.69761,4.1738 1.06224,0.87452 2.22097,1.50431 12.56771,6.83079 4.87494,2.50961 10.45238,5.38862 12.39429,6.3978 3.57452,1.85761 17.09738,8.81495 27.028622,13.90588 2.983177,1.52923 6.376458,3.29019 7.540625,3.91324 1.164166,0.62305 6.998229,3.63057 12.964583,6.68338 5.966354,3.05282 13.943542,7.1541 17.727083,9.11396 3.783542,1.95986 10.510573,5.44029 14.948959,7.73429 4.438385,2.294 10.39151,5.39306 13.229166,6.88681 2.837657,1.49375 10.8743754,5.66231 17.8593754,9.26347 6.9849996,3.60116 15.2598436,7.88407 18.3885416,9.51757 3.128698,1.6335 9.439011,4.90809 14.022917,7.27686 4.583906,2.36878 9.227344,4.78416 10.31875,5.36752 1.091406,0.58336 5.258594,2.73005 9.260416,4.77041 4.001823,2.04037 10.074011,5.18714 13.49375,6.99283 3.41974,1.80568 8.360834,4.36303 10.980209,5.68299 2.619375,1.31996 5.000625,2.56564 5.291666,2.76818 0.291042,0.20254 0.767292,0.33495 1.058334,0.29425 0.527757,-0.0738 0.529166,-0.27505 0.529166,-75.5412 z"
         id="path33211" /></g></g></svg>
